<?xml version="1.0" encoding="utf-8"?>
<!-- Generator: Adobe Illustrator 19.0.0, SVG Export Plug-In . SVG Version: 6.00 Build 0)  -->
<svg version="1.1" id="Layer_1" xmlns="http://www.w3.org/2000/svg" xmlns:xlink="http://www.w3.org/1999/xlink" x="0px" y="0px"
	 viewBox="0 0 633.7 308.2" style="enable-background:new 0 0 633.7 308.2;" xml:space="preserve">
<style type="text/css">
	.st0{display:none;}
	.st1{display:inline;}
	.st2{fill:#384EA2;}
	.st3{opacity:0.5;fill:#EDF0F1;enable-background:new    ;}
	.st4{display:none;fill:#ED2224;}
	.st5{display:none;fill:#FFFFFF;}
	.st6{fill:#EDF0F1;}
	.st7{fill:#EEEEEE;}
	.st8{fill:#FFFFFF;}
	.st9{fill:#FFFFFF;stroke:#FFFFFF;stroke-width:2;stroke-miterlimit:10;}
	.st10{fill:#FFFFFF;stroke:#3B4EA1;stroke-width:3;stroke-miterlimit:10;}
</style>
<g id="XMLID_9_" class="st0">
	<g id="XMLID_20_" class="st1">
		<g id="Others">
		</g>
		<g id="Design">
		</g>
		<g id="SEO_x2F__Web">
		</g>
		<g id="Finance__x2F__Money">
		</g>
		<g id="E-Commerce__x2F__Shopping">
		</g>
		<g id="Strategy">
			<g id="paper_airplane">
				<path id="XMLID_29_" class="st2" d="M164.8,172.5c0,17.3-8.8,32.6-22.2,41.9c-8.6,6-20.1,2.6-31.5,2.6
					c-12.7,0-23.5,2.4-32.6-4.8c-11.8-9.4-19.3-23.7-19.3-39.7c0-28.4,23.6-51.4,52.8-51.4S164.8,144.1,164.8,172.5z"/>
				<path id="XMLID_28_" class="st3" d="M142.5,214.4c10.6-7.4,18.4-18.5,21.1-31.4c-6.8,1-12.9,5.5-15.4,12.2
					c-0.4,1.2-0.7,2.4-0.9,3.7c-5.7-1.2-11.6,1.8-13.6,7.4c-0.2,0.4-0.3,0.8-0.4,1.3c-0.7-0.5-1.5-0.8-2.3-1.1
					c-5.6-1.9-11.7,0.9-13.7,6.4c-0.5,1.5-0.7,3-0.6,4.5C126.2,217.9,135.3,219.4,142.5,214.4z"/>
				<path id="XMLID_27_" class="st3" d="M95,201.4c-3.3-4.3-9.5-5.4-14-2.3c-0.4-1.1-1-2.1-1.7-3.1c-3.8-5-10.6-6.7-16.2-4.4
					c3.3,8.1,8.7,15.2,15.5,20.6c3.4,2.7,7.1,4.1,11,4.7c1.2-0.3,2.3-0.8,3.3-1.6C97.4,212.1,98.4,205.8,95,201.4z"/>
				<polygon id="XMLID_26_" class="st4" points="73.7,155.6 147.9,140.6 89.5,169.8 				"/>
				<polygon id="XMLID_25_" class="st5" points="89.5,183.9 89.5,169.8 147.9,140.6 				"/>
				<polygon id="XMLID_24_" class="st4" points="116.8,191.6 99.4,176.5 147.9,140.6 				"/>
				<g id="XMLID_21_">
					<path id="XMLID_23_" class="st6" d="M134.5,210.3c-1.2-6.8-7.3-12.1-14.6-12.1c-4.1,0-7.8,1.6-10.5,4.2
						c-2.9-2.8-6.9-4.5-11.3-4.5c-6.7,0-12.5,4-14.9,9.8c-2.2,0.5-3.9,2.8-4.3,5c9.1,7.2,20.7,11.2,33.3,11.2
						c11.4,0,21.9-3.5,30.5-9.5C140.7,212.1,137.8,210.6,134.5,210.3z"/>
				</g>
			</g>
		</g>
	</g>
</g>
<g id="XMLID_149_">
	<g id="XMLID_2_">
		<path id="XMLID_269_" class="st7" d="M43.2,275.4c-0.3-5.6-0.7-12.4-0.7-17.5h-0.2c-1.5,4.7-3.4,9.8-5.7,15.4l-8,19.6h-4.4
			l-7.3-19.3c-2.1-5.7-4-10.9-5.2-15.7h-0.1c-0.1,5-0.5,11.8-0.9,17.9l-1.2,17.3H3.9l3.2-40.4h7.5l7.7,19.6c1.9,5,3.4,9.4,4.6,13.6
			H27c1.1-4.1,2.8-8.5,4.8-13.6l8.1-19.6h7.5l2.8,40.4h-5.7L43.2,275.4z"/>
		<path id="XMLID_271_" class="st7" d="M64.9,252.7v40.4H59v-40.4H64.9z"/>
		<path id="XMLID_273_" class="st7" d="M75,293.2v-40.4h6.4l14.5,20.5c3.4,4.7,6,9,8.1,13.1l0.1-0.1c-0.5-5.4-0.7-10.3-0.7-16.6
			v-16.9h5.5v40.4h-5.9l-14.4-20.5c-3.2-4.5-6.2-9.1-8.5-13.5l-0.2,0.1c0.3,5.1,0.5,10,0.5,16.7v17.3H75z"/>
		<path id="XMLID_275_" class="st7" d="M125,252.7v40.4h-5.8v-40.4H125z"/>
		<path id="XMLID_277_" class="st7" d="M135.1,293.2v-40.4h6.4l14.5,20.5c3.4,4.7,6,9,8.1,13.1l0.1-0.1c-0.5-5.4-0.7-10.3-0.7-16.6
			v-16.9h5.5v40.4h-5.9l-14.4-20.5c-3.2-4.5-6.2-9.1-8.5-13.5l-0.2,0.1c0.3,5.1,0.5,10,0.5,16.7v17.3H135.1z"/>
		<path id="XMLID_279_" class="st7" d="M213.7,291.4c-2.6,0.8-7.8,2.2-13.9,2.2c-6.8,0-12.5-1.6-16.9-5.3c-3.9-3.4-6.3-8.8-6.3-15.1
			c0.1-12.1,9.3-20.9,24.5-20.9c5.2,0,9.3,1,11.3,1.9l-1.4,4.3c-2.4-1-5.4-1.7-10-1.7c-11,0-18.2,6.1-18.2,16.3
			c0,10.3,6.9,16.3,17.5,16.3c3.8,0,6.4-0.5,7.8-1.1v-12.1h-9.2v-4.2h14.9V291.4z"/>
		<path id="XMLID_281_" class="st7" d="M265.1,293.2c-1.3-1.1-2.5-2.3-4.2-4c-3.9,3.2-8.3,4.6-13.2,4.6c-8.8,0-13.9-5.3-13.9-11.3
			c0-5.5,3.7-9.3,8.9-11.8v-0.2c-2.4-2.6-3.8-5.6-3.8-8.5c0-4.9,4-10,11.5-10c5.6,0,10,3.4,10,8.6c0,4.3-2.8,7.6-9.9,10.8v0.2
			c3.8,4,8.1,8.4,11,11.3c2.1-2.8,3.5-6.7,4.4-11.8h5.4c-1.2,6.4-3.2,11.4-6.5,14.9c2.4,2.3,4.8,4.6,7.5,7.1H265.1z M257.9,286.2
			c-2.7-2.6-7.7-7.6-12.8-12.7c-2.4,1.4-5.8,4-5.8,8.2c0,4.6,3.8,8.2,9.3,8.2C252.5,289.9,255.8,288.3,257.9,286.2z M244.2,261.5
			c0,2.9,1.5,5.1,3.4,7.3c4.6-2.3,7.5-4.5,7.5-7.9c0-2.5-1.5-5.2-5.2-5.2C246.1,255.7,244.2,258.4,244.2,261.5z"/>
		<path id="XMLID_285_" class="st7" d="M291.4,253.2c2.8-0.4,6.5-0.8,11.2-0.8c5.8,0,10,1.2,12.7,3.4c2.5,1.9,4,4.9,4,8.5
			c0,3.7-1.2,6.5-3.5,8.6c-3.1,2.9-8.1,4.4-13.8,4.4c-1.7,0-3.4-0.1-4.7-0.4v16.2h-5.8V253.2z M297.3,272.7c1.3,0.3,2.9,0.4,4.8,0.4
			c7.1,0,11.3-3.1,11.3-8.6c0-5.3-4.2-7.9-10.7-7.9c-2.6,0-4.5,0.2-5.5,0.4V272.7z"/>
		<path id="XMLID_288_" class="st7" d="M350.5,274.2h-17.6v14.6h19.6v4.4h-25.5v-40.4h24.4v4.4h-18.6v12.8h17.6V274.2z"/>
		<path id="XMLID_290_" class="st7" d="M369.7,257.2H356v-4.4h33.5v4.4h-13.8v36h-5.9V257.2z"/>
		<path id="XMLID_292_" class="st7" d="M394.5,253.3c3-0.5,7.2-0.8,11.2-0.8c6.2,0,10.3,1,13.1,3.3c2.3,1.8,3.6,4.6,3.6,7.7
			c0,5.3-3.8,8.9-8.5,10.3v0.2c3.5,1.1,5.6,4,6.6,8.2c1.5,5.6,2.6,9.5,3.5,11.1h-6c-0.7-1.1-1.7-4.6-3-9.7c-1.3-5.6-3.8-7.7-9.1-7.9
			h-5.5v17.5h-5.8V253.3z M400.3,271.7h6c6.2,0,10.2-3.1,10.2-7.7c0-5.2-4.2-7.5-10.4-7.6c-2.8,0-4.8,0.2-5.8,0.5V271.7z"/>
		<path id="XMLID_295_" class="st7" d="M469.4,272.5c0,13.9-9.5,21.3-21,21.3c-12,0-20.3-8.3-20.3-20.5c0-12.8,8.9-21.2,21-21.2
			C461.4,252.1,469.4,260.5,469.4,272.5z M434.3,273.2c0,8.6,5.2,16.4,14.4,16.4c9.3,0,14.5-7.6,14.5-16.8c0-8-4.7-16.4-14.4-16.4
			C439.1,256.3,434.3,264.3,434.3,273.2z"/>
		<path id="XMLID_298_" class="st7" d="M476.9,252.7h5.8v36.1h19.3v4.4h-25.2V252.7z"/>
		<path id="XMLID_300_" class="st7" d="M532,274.2h-17.6v14.6H534v4.4h-25.5v-40.4H533v4.4h-18.6v12.8H532V274.2z"/>
		<path id="XMLID_302_" class="st7" d="M547.4,252.7v23.9c0,9.1,4.5,12.9,10.5,12.9c6.7,0,11-4,11-12.9v-23.9h5.9v23.6
			c0,12.4-7.3,17.5-17.1,17.5c-9.3,0-16.3-4.7-16.3-17.3v-23.8H547.4z"/>
		<path id="XMLID_304_" class="st7" d="M623,275.4c-0.3-5.6-0.7-12.4-0.7-17.5h-0.2c-1.5,4.7-3.4,9.8-5.7,15.4l-8,19.6H604
			l-7.3-19.3c-2.1-5.7-4-10.9-5.2-15.7h-0.1c-0.1,5-0.5,11.8-0.9,17.9l-1.2,17.3h-5.6l3.2-40.4h7.5l7.7,19.6c1.9,5,3.4,9.4,4.6,13.6
			h0.2c1.1-4.1,2.8-8.5,4.8-13.6l8.1-19.6h7.5l2.8,40.4h-5.7L623,275.4z"/>
	</g>
	<g id="XMLID_4_">
		<path id="XMLID_15_" class="st7" d="M87.7,41.1c-5.8,0.4-11.6,1.3-17.5,2.7l-8.9-20.8L49.4,51C40,55.5,31,61.6,23,69.7l7.7-18.2
			L52.3,0l17.7,0L87.7,41.1z"/>
		<path id="XMLID_16_" class="st7" d="M95.2,58.6C94.1,59,93,59.3,92,59.5c0,0-0.1,0-0.1,0c-0.7,0.2-1.4,0.3-2.1,0.5
			c-1.7,0.9-3.5,1.7-5.3,2.4c-0.3,0.2-0.5,0.3-0.8,0.5c-0.1,0.1-0.2,0.2-0.4,0.2c-1.2,0.8-2.5,1.5-3.9,2.1l0,0l3.4,7.9L96.5,105
			h18.6L95.2,58.6L95.2,58.6z"/>
		<path id="XMLID_231_" class="st8" d="M152.6,49.2c-10.7-2.1-22.2-3.4-34.6-3.8C78.3,43.9,29.3,57.7,6,105H13
			c23.8-45.6,71.9-59,111-57.6c9.6,0.3,18.8,1.2,27.4,2.5c-6.7-0.8-13.7-1.4-20.9-1.6C91.6,46.9,43.9,60.1,20,105h8.1
			c24.1-44,71.4-57,110-55.6c4.8,0.2,9.5,0.5,14,0.9C152.3,50,152.5,49.6,152.6,49.2z"/>
		<path id="XMLID_17_" class="st7" d="M109.7,55.2c-0.2,0-0.4,0-0.6,0c-0.1,0-0.2,0-0.3,0c-0.5,0.1-1,0.2-1.5,0.3
			c-0.2,0-0.4,0.1-0.6,0.1c-0.5,0.1-1,0.1-1.5,0.2c-0.2,0-0.4,0.1-0.7,0.1c-0.5,0.1-1,0.1-1.5,0.2c-0.2,0-0.4,0-0.6,0
			c-0.3,0-0.5,0-0.8,0c-0.3,0.1-0.5,0.1-0.8,0.2V105h17.7V55.1c-1-0.1-2-0.2-3-0.3C113.6,55,111.6,55.2,109.7,55.2z"/>
		<g id="XMLID_5_">
			<rect id="XMLID_6_" x="100.8" class="st7" width="17.7" height="40.1"/>
			<polygon id="XMLID_7_" class="st7" points="117.5,0.1 117.5,16.2 161.6,16.1 161.6,0 			"/>
		</g>
	</g>
	<path id="XMLID_30_" class="st7" d="M208,164.8v18.6h13.7v22c-1.6,0.9-5.3,1.6-9.9,1.6c-16.5,0-28-12.8-28-34.5
		c0-22.8,12.7-34,29.4-34c9.8,0,15.8,2,20.7,4.5l4.2-19c-4.4-2.5-13.2-5.2-24.7-5.2c-22.7,0-40.8,12.2-47.7,34.1c0,0,0,0,0,0
		c0.2,0.6,0.4,1.3,0.6,1.9c0.1,0.2,0.1,0.4,0.2,0.6c0.2,0.6,0.3,1.2,0.5,1.7c0.1,0.3,0.1,0.5,0.2,0.8c0.1,0.5,0.3,1.1,0.4,1.6
		c0.1,0.3,0.1,0.6,0.2,1c0.1,0.5,0.2,1,0.3,1.5c0.1,0.4,0.1,0.7,0.2,1.1c0.1,0.5,0.2,0.9,0.2,1.4c0.1,0.4,0.1,0.9,0.2,1.3
		c0.1,0.4,0.1,0.8,0.2,1.2c0.1,0.5,0.1,1.1,0.2,1.6c0,0.3,0.1,0.7,0.1,1c0.1,0.9,0.1,1.7,0.2,2.6c0,0.9,0,1.7,0,2.6
		c0,0.4,0,0.9-0.1,1.3c0,0.4,0,0.9-0.1,1.3c-0.1,0.6-0.1,1.2-0.2,1.8c0,0.3-0.1,0.6-0.1,0.9c-0.1,0.7-0.2,1.4-0.4,2.1
		c0,0.2-0.1,0.3-0.1,0.5c-0.2,0.8-0.4,1.6-0.6,2.4c0,0.1,0,0.1-0.1,0.2c-0.2,0.9-0.5,1.7-0.7,2.5c0,0,0,0,0,0.1
		c-0.5,1.7-1.2,3.5-1.9,5.2c0,0,0,0,0,0c2.1,7.4,5.5,13.8,10,18.9c8.2,9.4,19.9,14.2,36.1,14.2c11.7,0,23.5-3.4,29.7-5.9v-55.4H208z
		"/>
	<path id="XMLID_318_" class="st7" d="M279,119.9v105.2h-20.2V119.9H279z"/>
	<path id="XMLID_320_" class="st7" d="M299,200.6c5.4,3.3,13.7,6.6,22.3,6.6c9.2,0,14.1-4.5,14.1-11.4c0-6.6-4.2-10.3-14.9-14.8
		c-14.8-6.1-24.4-15.8-24.4-31.1c0-18,12.7-31.7,33.6-31.7c10,0,17.4,2.5,22.7,5.3l-4.5,19.2c-3.6-2-9.9-5-18.6-5
		c-8.7,0-12.9,4.7-12.9,10.1c0,6.7,5,9.7,16.5,14.8c15.7,6.9,23.1,16.6,23.1,31.4c0,17.6-11.5,32.6-35.9,32.6
		c-10.2,0-20.2-3.1-25.2-6.4L299,200.6z"/>
	<path id="XMLID_322_" class="st7" d="M388.7,139.9h-23.9v-20h68.3v20h-24.3v85.3h-20.2V139.9z"/>
	<path id="XMLID_324_" class="st7" d="M466,119.9v105.2h-20.2V119.9H466z"/>
	<path id="XMLID_326_" class="st7" d="M550.7,222.1c-3.7,2.2-12,4.5-22.8,4.5c-30.7,0-46.6-22.6-46.6-52.6
		c0-35.9,21.6-55.9,48.5-55.9c10.4,0,18.3,2.5,21.9,4.7l-4.1,18.9c-4.1-2-9.8-3.9-16.9-3.9c-16,0-28.4,11.4-28.4,34.8
		c0,21.1,10.6,34.4,28.5,34.4c6.1,0,12.8-1.6,16.8-3.4L550.7,222.1z"/>
	<path id="XMLID_328_" class="st7" d="M566.5,200.6c5.4,3.3,13.7,6.6,22.3,6.6c9.2,0,14.1-4.5,14.1-11.4c0-6.6-4.2-10.3-14.9-14.8
		c-14.8-6.1-24.4-15.8-24.4-31.1c0-18,12.7-31.7,33.6-31.7c10,0,17.4,2.5,22.7,5.3l-4.5,19.2c-3.6-2-9.9-5-18.6-5
		c-8.7,0-12.9,4.7-12.9,10.1c0,6.7,5,9.7,16.5,14.8c15.7,6.9,23.1,16.6,23.1,31.4c0,17.6-11.5,32.6-35.9,32.6
		c-10.2,0-20.2-3.1-25.2-6.4L566.5,200.6z"/>
	<g id="XMLID_12_">
		<path id="XMLID_22_" class="st7" d="M71.2,212.2c-0.7-0.6-1.3-1.3-2-1.9c0,0,0,0,0,0c-0.5-0.5-1-1.1-1.5-1.6c0,0,0,0,0,0
			c-0.1-0.1-0.2-0.2-0.3-0.3l0,0c-0.6-0.7-1.1-1.3-1.6-2c0,0,0,0,0-0.1c-0.5-0.7-1.1-1.4-1.6-2.2l0,0H30.6v-86.3H6v106.5h67.7v-10
			l0,0C72.8,213.6,72,212.9,71.2,212.2z"/>
	</g>
	<g id="XMLID_148_">
		<g id="XMLID_3_">
			<g id="XMLID_8_">
				<path id="XMLID_90_" class="st9" d="M150.4,156l0.9,0.6h0.8V155l2.7-0.3l2.5,1.9h4.1l0.3-0.3c-0.4-1.4-0.9-2.8-1.4-4.1l-2.7,0
					l-1.4-1.5l-0.3-2.4l-1.4,0.8l-0.7,2.9l-2-2.1l-0.1-2l-1.9-1.7l-0.7-0.7h-2.2l0.7,2l2.7,1.5l0.5,0.5l-0.6,0.3l0,1.6l-1.3,0.6
					l-1.1-0.2l-0.7-1l1.8,0.1l0.5-0.7l-4-2.7l-0.3-1.2l-1.6,1.5l-1.7-0.3l-2.5,3.3l-0.5,1.3l-1.6,0.1l-2.4,0l-1.4-0.7l-0.4-2.9
					l0.5-1.4l2.4-0.5l2.7,0.5l0.3-1.5l-1.1-0.3l0.4-2.3l2.7-0.4l1.9-2.7l1.9-0.3l1.7,0.3h0.6l-0.4-2.5l-2.1,0.9l-0.7-1.9l-1.2-0.2
					l-0.2-1.3l1-1.1l2.4-0.9l0.6-1.1c-9.1-8.1-21.1-13-34.3-13c-11.4,0-21.9,3.7-30.5,9.9l2.6,0l1.2,0.6l2.2,0.5l0.2,0.9l3.5,0.1
					l-0.5-1.1l-3.1-0.1l0.7-0.7l-0.3-0.8h-2.8l3.1-2.3h2.9l1.4,1.9l2.3,0.1l1.4-1.3l1,0.5l-1.9,1.9c0,0-2.6,0-2.5,0
					c0.1,0,0.2,1.8,0.2,1.8l3.2-0.1l0.3-0.9l2.2-0.1l0.3-1.3l-1.3-0.2l0.4-1.2l1-0.3l3.4,0.2l-1.9,1.7l0.3,1.3l2,0.3l-0.1-2.4l1.9-1
					l3.4-0.4l4.9,2.2v1.9l1.6,0.4l-0.8,1.5h-2.2l-0.7,1.7l-5-1.2l3.9-2.1l-1.5-1.3l-3.4,0.4l-0.3,0.3l0,0l-0.1,0.1l-1,1l-1.6,0.1
					l0.1,0.8l0.6,0.2l0,0.3l-1.3,0.2l-0.1,0.8l-1.3,0.1l-0.2-1.5l-2.3,0.7l-4.6,2.7l0.5,1.9l1.3,0.8l2.6,0.4v2.9l1.2-0.2l1.1-2.3
					l2.7-0.9V135l1.5-1.2l3.7,0.9l-0.3,2.3h1l2.7-1.3l0.1,3.1l2,1.2l-0.1,1.8l-1.9,0.6l0.1,0.6l2.3,1l0,1.2l-0.7,0.1c0,0,0,0,0,0
					l-2.9-0.9l-0.1-0.9h0l0.8-0.6v-0.8l-0.9-0.2l-0.2,0.8l-1.6,0.2l-0.2-0.1v0.1l-0.6,0.1l-0.4-0.9l-0.5-0.2h-1.1l-0.5,0.4v0.9
					l1,0.3l1,0.1l-0.2,0.1l-0.9,1l-0.4-0.5l-0.8-0.2l-2.3,2.2l0.3,0.2l-3.4,1.9l-3.2,3.3l-0.2,1.5l-3.2,2.1l-1.6,1.6l0.2,3.2l-2.2-1
					l0-1.9l-6.1,0l-3.2,1.6l-1.4,2.5l-0.5,2l0.9,2l2.5,0.3l4-2.7l0.3,1.3l-1.2,2.3l3,0.5l0.3,4.7l4.1,0.7l2.6-3l3.2,0.6l1.1,1.6
					l3.1-0.2l0.1-0.9l1.7,0.8l1.9,3l3.3,0l1.2,2.1l0.2,2.6l3.6,1.4l4.6,0l1.3,2.2l2,0.6l-0.4,1.8l-2.2,2.8l-0.6,6.2l-2,1.6l-3-0.1
					l-1,1.7l0.7,3.2l-3.2,4.1l-1,1.9l-3.1,1.5l-2,0.3l-0.1,0.9l1.4,0.4l-0.2,0.9l-1.3,1.2l0.8,1l1.5,0l-0.1,1.2l-0.4,1.2l-0.1,0.9
					l2.3,1.9l-0.3,1l-3.1-0.1l-3.1-2.7l-2.4-4.2l0.3-4.1l-1.8-2.4l0.7-4.1l-1.1-0.3v-8.9c0,0-3-2.3-3.2-2.3s-1.6-0.4-1.6-0.4
					l-0.3-1.7l-3.9-4.9l0.4-1.8l0.1-2.9l2.7-1.9l-0.4-3.2l-4-0.3l-3.1-3.5l-2.2-0.6l-1.4-0.3l0.2-1.3l-1.8-0.3v0.7l-4.5-1.1
					l-1.8-2.8l0.7-1.4l-2.9-4.2l-0.5-3.1H68l0.4,3l2,3.1l-0.2,1.2l-1.7-0.3l-2.1-3.5v-4.1l-2.2-1v-3c-2.7,6.2-4.1,13.1-4.1,20.3
					c0,28.6,23.3,51.9,51.9,51.9c16.2,0,30.7-7.5,40.2-19.2h-1.7v-3.4l-2-2.7v-4.1l-1.5-1.5l-0.1-1.7l1.9-3.7l-3.6-6.4l0.4-4.4
					l-3.3-0.3l-1.2-1.2h-2.2l-1.1,1h-3.9l-0.1,0.3h-2.2l-5-5.6l0-4.4l0.8-0.3l0.3-1.7h-1.2l-0.5-1.8l5.7-4.1v-2.9l2.8-1.6l1.1,0.1
					h2.3l1.8-1l5.8-0.5v3L150.4,156z M135.9,137.5l0.5-0.7l1.7-0.3l0.4,2.1l0.9,1.5l0.6,0.7l1.1,0.4l-1,1.2l-2,0.2h-1.5l0.2-1.8
					l1.3-0.3l-0.1-0.8l-1.2-0.7l-0.8-0.6L135.9,137.5L135.9,137.5z M133.1,140.7l1-1.7l1.4-0.3l1,0.4l-0.1,1.1l-2.1,1.5h-1.2
					L133.1,140.7L133.1,140.7z M104.9,147.1l-1.1,0.1l0.1-0.8l0.5-0.6l0.6,0.5L104.9,147.1z M108.7,145.8l-0.7,0.1l-0.1,0.7
					l-0.6,0.4l-0.9,0.1c0-0.2,0-0.4,0-0.4h-0.4v-0.8h1.5l0.3-0.8l0.6,0l0.7,0.1L108.7,145.8z"/>
			</g>
		</g>
		<g id="XMLID_97_">
			<g id="XMLID_98_">
				<path id="XMLID_1_" class="st10" d="M120.9,159.9c-1.3,2.1-2.1,4.2-2,5.7c0,0.5,0.2,0.8,0.4,1.1c0,0,0.1,0.1,0.2,0.2
					c0.1,0.1,0.2,0.1,0.2,0.1c0.3,0.2,0.7,0.2,1.2,0.2c1.5-0.1,3.5-1.1,5.3-2.8c1.5-1.3,3-3.1,5.1-5.6c0.3-0.4,0.7-0.9,1.1-1.3
					l4.4,1l0,0c-0.2,0.2-0.3,0.4-0.2,0.7c0,0.3,0.1,0.5,0.3,0.7l0.8,0.7c0.2,0.2,0.4,0.3,0.7,0.2c0.3,0,0.5-0.1,0.7-0.3l1.1-1.2
					l0.6,0.1c-0.1,0.2-0.2,0.4-0.2,0.6c0,0.3,0.1,0.5,0.3,0.7l0.8,0.7c0.2,0.2,0.4,0.3,0.7,0.2c0.3,0,0.5-0.1,0.7-0.3l1-1.1l4.5,1
					c0.1,0,0.2,0,0.3,0c0.3,0,0.6-0.2,0.8-0.4l1.4-1.6c0.2-0.2,0.2-0.4,0.2-0.7c0-0.3-0.2-0.6-0.5-0.8l-9.5-4.5c0,0-0.2-0.1-0.2-0.2
					l-2.8-2.4c2.3-2.7,4.3-5.4,5.8-7.7c0.1-0.2,0.3-0.4,0.4-0.6l7.1,0.2c0,0,0.1,0,0.1,0c0.3,0,0.6-0.2,0.9-0.4l0.7-0.8
					c0.2-0.2,0.2-0.4,0.2-0.7c0-0.3-0.2-0.6-0.6-0.8l-5.2-2c0,0-0.2-0.1-0.2-0.1l-0.4-0.4c0.1-0.4,0.1-0.7,0.1-1
					c0-0.4-0.2-0.7-0.4-0.9l0,0l0,0c-0.3-0.2-0.6-0.3-0.9-0.3c-0.3,0-0.6,0.1-0.9,0.3l-0.4-0.4c0,0-0.1-0.1-0.1-0.2l-2.7-4.8
					c-0.2-0.3-0.5-0.5-0.8-0.5l0,0c-0.2,0-0.5,0.1-0.6,0.3l-0.7,0.8c-0.2,0.2-0.3,0.6-0.3,0.9c0,0,0,0.1,0,0.1l1.1,7.1
					c-0.2,0.2-0.4,0.3-0.6,0.5c-2.1,1.9-4.4,4.2-6.8,6.8l-2.8-2.4c0,0-0.2-0.2-0.2-0.2l-5.8-8.8c-0.2-0.3-0.5-0.4-0.8-0.4
					c-0.2,0-0.5,0.1-0.6,0.3l-1.4,1.7c-0.2,0.2-0.3,0.5-0.3,0.8c0,0.1,0,0.2,0.1,0.3l1.6,4.3l-1,1.1c-0.2,0.2-0.3,0.4-0.2,0.7
					c0,0.3,0.1,0.5,0.3,0.7l0.8,0.7c0.2,0.2,0.4,0.3,0.7,0.2c0.2,0,0.4-0.1,0.6-0.2l0.2,0.6l-1.1,1.2c-0.2,0.2-0.3,0.4-0.2,0.7
					c0,0.3,0.1,0.5,0.3,0.7l0.8,0.7c0.2,0.2,0.4,0.3,0.7,0.2c0.3,0,0.5-0.1,0.7-0.3l0,0l1.6,4.2c-0.4,0.5-0.8,0.9-1.2,1.3
					C123.6,156.5,122,158.2,120.9,159.9z"/>
			</g>
		</g>
		<g id="XMLID_106_">
			<g id="XMLID_107_">
				<path id="XMLID_108_" class="st10" d="M119.4,187.2l-5.6,11.7c-0.7,1.4-2.1,2.2-3.6,2.2h-33c-0.6,0-1-0.6-0.7-1.2l0,0
					c0.4-0.9,0.2-2-0.6-2.5l0,0c-1.9-1.3-3-3.5-3-5.8v-2.6h29.4v0c0-0.9,0.7-1.6,1.6-1.6H119.4L119.4,187.2z M100.6,177.4h-5.7
					c-0.5,0-0.8,0.4-0.8,0.8v9c0,0.5,0.4,0.8,0.8,0.8h5.7c0.5,0,0.8-0.4,0.8-0.8v-9C101.4,177.8,101,177.4,100.6,177.4z
					 M110.4,180.7h-6.5c-0.5,0-0.8,0.4-0.8,0.8v3.3c0,0.5,0.4,0.8,0.8,0.8h6.5c0.5,0,0.8-0.4,0.8-0.8v-3.3
					C111.2,181.1,110.8,180.7,110.4,180.7z M85.1,188.1h6.5c0.5,0,0.8-0.4,0.8-0.8v-6.5c0-0.5-0.4-0.8-0.8-0.8h-6.5
					c-0.5,0-0.8,0.4-0.8,0.8v6.5C84.3,187.7,84.6,188.1,85.1,188.1z M84.7,175.8l-2,1.6v10.6h-8.2v-10.6H72v-1.6h5.7v-2.4h-2.1v-1
					h2.1v-4.8h0.8v4.8h2.1v1h-2.1v2.4H84.7L84.7,175.8z M81.2,182.5h-2.7v2.4h2.7V182.5z M81.2,178.6h-2.7v2.4h2.7V178.6z"/>
			</g>
		</g>
	</g>
	<g id="XMLID_11_">
		<g id="XMLID_46_">
			<path id="XMLID_50_" class="st8" d="M82.6,208.8c1.8-2.2,5.7-3.4,8.5-2.9c1.6,0.3,2.6,1.5,4,2.2c1.4,0.7,1.6,0.9,3.1,0.7
				c5-0.5,6.4-6.1,12.9-3.4c0.8,0.3,3.4-0.9,2.3-1.3c-3-1.3-6.1-1.4-9.2-0.3c-1,0.4-1.9,0.8-2.8,1.4c-2.5,1.7-4,1.1-6.5-0.1
				c-5.1-2.5-11.5-0.6-15,3.7C79.1,209.7,82,209.5,82.6,208.8L82.6,208.8z"/>
		</g>
	</g>
	<g id="XMLID_10_">
		<g id="XMLID_39_">
			<path id="XMLID_43_" class="st8" d="M86.6,212.8c1.8-2.2,5.7-3.4,8.5-2.9c1.6,0.3,2.6,1.5,4,2.2c1.4,0.7,1.6,0.9,3.1,0.7
				c5-0.5,6.4-6.1,12.9-3.4c0.8,0.3,3.4-0.9,2.3-1.3c-3-1.3-6.1-1.4-9.2-0.3c-1,0.4-1.9,0.8-2.8,1.4c-2.5,1.7-4,1.1-6.5-0.1
				c-5.1-2.5-11.5-0.6-15,3.7C83.1,213.7,86,213.5,86.6,212.8L86.6,212.8z"/>
		</g>
	</g>
</g>
<g id="XMLID_268_">
</g>
<g id="XMLID_306_">
</g>
<g id="XMLID_307_">
</g>
<g id="XMLID_308_">
</g>
<g id="XMLID_309_">
</g>
<g id="XMLID_310_">
</g>
</svg>
