<?xml version="1.0" encoding="utf-8"?>
<!-- Generator: Adobe Illustrator 19.0.0, SVG Export Plug-In . SVG Version: 6.00 Build 0)  -->
<svg version="1.1" id="Capa_1" xmlns="http://www.w3.org/2000/svg" xmlns:xlink="http://www.w3.org/1999/xlink" x="0px" y="0px"
	 viewBox="25.4 99 192.3 105.6" style="enable-background:new 25.4 99 192.3 105.6;" xml:space="preserve">
<style type="text/css">
	.st0{fill:#3B4EA0;}
	.st1{fill:#384EA0;}
	.st2{opacity:0.5;fill:#ECEFF0;enable-background:new    ;}
	.st3{display:none;fill:#EC2024;}
	.st4{display:none;fill:#FFFFFF;}
	.st5{fill:#ECEFF0;}
	.st6{fill:#EC1E24;}
	.st7{fill:#FFFFFF;}
</style>
<g id="XMLID_4_">
	<rect id="XMLID_2_" x="112.3" y="152.2" class="st0" width="16.2" height="51.9"/>
	<g id="XMLID_20_">
		<g id="Others">
		</g>
		<g id="Design">
		</g>
		<g id="SEO_x2F__Web">
		</g>
		<g id="Finance__x2F__Money">
		</g>
		<g id="E-Commerce__x2F__Shopping">
		</g>
		<g id="Strategy">
			<g id="paper_airplane">
				<path id="XMLID_29_" class="st1" d="M217.7,159.9c0,15.1-7.5,28.4-19,36.5c-7.4,5.2-17.2,2.3-26.9,2.3c-10.9,0-20,2.1-27.8-4.2
					c-10.1-8.2-16.5-20.6-16.5-34.6c0-24.7,20.2-44.7,45.1-44.7S217.7,135.2,217.7,159.9z"/>
				<path id="XMLID_28_" class="st2" d="M198.7,196.4c9.1-6.4,15.7-16.1,18-27.3c-5.8,0.8-11,4.8-13.1,10.7
					c-0.4,1.1-0.6,2.1-0.8,3.2c-4.9-1.1-9.9,1.6-11.7,6.4c-0.1,0.4-0.2,0.7-0.3,1.1c-0.6-0.4-1.3-0.7-2-1c-4.8-1.7-10,0.8-11.7,5.5
					c-0.5,1.3-0.6,2.6-0.5,3.9C184.7,199.4,192.5,200.7,198.7,196.4z"/>
				<path id="XMLID_27_" class="st2" d="M158.1,185.1c-2.8-3.8-8.1-4.7-12-2c-0.4-0.9-0.9-1.8-1.5-2.7c-3.3-4.4-9-5.8-13.9-3.8
					c2.8,7,7.4,13.2,13.3,18c2.9,2.4,6,3.6,9.4,4.1c1-0.3,2-0.7,2.9-1.4C160.1,194.4,160.9,188.9,158.1,185.1z"/>
				<polygon id="XMLID_26_" class="st3" points="139.8,145.2 203.2,132.1 153.3,157.6 				"/>
				<polygon id="XMLID_25_" class="st4" points="153.4,169.8 153.4,157.6 203.2,132.1 				"/>
				<polygon id="XMLID_24_" class="st3" points="176.7,176.5 161.8,163.4 203.2,132.1 				"/>
				<g id="XMLID_21_">
					<path id="XMLID_23_" class="st5" d="M191.8,192.8c-1-5.9-6.2-10.5-12.5-10.5c-3.5,0-6.7,1.4-9,3.7c-2.5-2.4-5.9-4-9.7-4
						c-5.8,0-10.7,3.5-12.7,8.5c-1.9,0.5-3.4,2.4-3.7,4.4c7.8,6.3,17.7,9.7,28.5,9.7c9.7,0,18.7-3,26.1-8.2
						C197.1,194.4,194.6,193,191.8,192.8z"/>
				</g>
			</g>
		</g>
	</g>
	<g id="XMLID_1_">
		<path id="XMLID_15_" class="st0" d="M100.2,140.1c-5.3,0.4-10.6,1.3-16,2.7l-8.2-20.8L65.2,150c-8.6,4.5-16.9,10.6-24.2,18.7
			l7-18.2L67.9,99l16.2,0L100.2,140.1z"/>
		<path id="XMLID_10_" class="st0" d="M125.4,204h-17.1l-12.5-31.8l-4.7-11.9c5.3-1.6,10.6-2.6,15.8-3.2L125.4,204z"/>
		<path id="XMLID_231_" class="st6" d="M144.6,147.7c-8.7-2.1-18-3.4-28.1-3.9c-32.3-1.5-72,12.5-91,60.2h5.8
			c19.3-46,58.4-59.5,90.2-58.1c7.8,0.3,15.3,1.2,22.3,2.6c-5.4-0.8-11.1-1.4-17-1.7C95,145.4,56.3,158.7,36.8,204h6.6
			c19.6-44.4,58-57.5,89.3-56.1c3.9,0.2,7.7,0.5,11.4,0.9C144.3,148.5,144.4,148.1,144.6,147.7z"/>
		<path id="XMLID_232_" class="st6" d="M144.2,148.6c-0.2,0-0.4-0.1-0.6-0.1c-5.4-0.8-11.1-1.4-17-1.7C95,145.4,56.3,158.7,36.8,204
			h6.6c19.6-44.4,58-57.5,89.3-56.1c3.9,0.2,7.7,0.5,11.4,0.9C144.2,148.8,144.2,148.7,144.2,148.6z"/>
	</g>
	<rect id="XMLID_3_" x="112.3" y="99" class="st0" width="16.2" height="40.1"/>
	
		<rect id="XMLID_5_" x="139.7" y="86.9" transform="matrix(-2.042129e-003 -1 1 -2.042129e-003 40.9193 255.0626)" class="st0" width="16.1" height="40.4"/>
	<g id="XMLID_227_">
		<g id="XMLID_228_">
			<path id="XMLID_229_" class="st7" d="M181.5,149.9l-3.6-1.6c-0.2-0.1-0.5-0.2-0.7-0.2l-8.3-0.6l-11.5-16.8
				c-0.2-0.3-0.5-0.5-0.9-0.5l-1.6-0.1c-0.8-0.1-1.5,0.7-1.2,1.5l4.6,15.1l-5.9-0.4l-4.8-5.5c-0.2-0.2-0.5-0.4-0.8-0.4l-0.9-0.1
				c-0.9-0.1-1.5,0.8-1.2,1.6l2,6.3l-2.9,6c-0.4,0.8,0.1,1.7,1,1.7l0.9,0.1c0.3,0,0.6-0.1,0.9-0.3l5.5-4.7l5.9,0.4l-6.7,14.3
				c-0.4,0.8,0.2,1.6,1,1.7l1.6,0.1c0.4,0,0.7-0.1,1-0.4l13.8-15l8.3,0.6c0.3,0,0.5,0,0.8-0.1l3.8-1.1
				C182.2,151.3,182.3,150.2,181.5,149.9z"/>
		</g>
	</g>
</g>
</svg>
